<svg width="305" height="44" viewBox="0 0 305 44" fill="none" xmlns="http://www.w3.org/2000/svg">
<path d="M13.62 18.88H32.1V29.56H13.62V18.88ZM14.58 43H0.42V0.999997H34.56V11.68H14.58V43ZM51.9933 16.6H70.7133V26.8H51.9933V16.6ZM52.9533 32.32H73.9533V43H39.0333V0.999997H73.1733V11.68H52.9533V32.32ZM95.0644 43.96C91.5444 43.96 88.1444 43.56 84.8644 42.76C81.5844 41.96 78.8844 40.92 76.7644 39.64L81.3244 29.32C83.3244 30.48 85.5444 31.42 87.9844 32.14C90.4644 32.82 92.8644 33.16 95.1844 33.16C96.5444 33.16 97.6044 33.08 98.3644 32.92C99.1644 32.72 99.7444 32.46 100.104 32.14C100.464 31.78 100.644 31.36 100.644 30.88C100.644 30.12 100.224 29.52 99.3844 29.08C98.5444 28.64 97.4244 28.28 96.0244 28C94.6644 27.68 93.1644 27.36 91.5244 27.04C89.8844 26.68 88.2244 26.22 86.5444 25.66C84.9044 25.1 83.3844 24.36 81.9844 23.44C80.6244 22.52 79.5244 21.32 78.6844 19.84C77.8444 18.32 77.4244 16.44 77.4244 14.2C77.4244 11.6 78.1444 9.24 79.5844 7.12C81.0644 4.96 83.2444 3.24 86.1244 1.96C89.0444 0.679999 92.6644 0.0399988 96.9844 0.0399988C99.8244 0.0399988 102.624 0.339998 105.384 0.939998C108.144 1.54 110.624 2.46 112.824 3.7L108.564 13.96C106.484 12.92 104.464 12.14 102.504 11.62C100.584 11.1 98.7044 10.84 96.8644 10.84C95.5044 10.84 94.4244 10.96 93.6244 11.2C92.8244 11.44 92.2444 11.76 91.8844 12.16C91.5644 12.56 91.4044 13 91.4044 13.48C91.4044 14.2 91.8244 14.78 92.6644 15.22C93.5044 15.62 94.6044 15.96 95.9644 16.24C97.3644 16.52 98.8844 16.82 100.524 17.14C102.204 17.46 103.864 17.9 105.504 18.46C107.144 19.02 108.644 19.76 110.004 20.68C111.404 21.6 112.524 22.8 113.364 24.28C114.204 25.76 114.624 27.6 114.624 29.8C114.624 32.36 113.884 34.72 112.404 36.88C110.964 39 108.804 40.72 105.924 42.04C103.044 43.32 99.4244 43.96 95.0644 43.96ZM127.372 43V11.98H115.072V0.999997H153.832V11.98H141.532V43H127.372ZM157.51 43V0.999997H171.67V43H157.51ZM191.686 43L173.926 0.999997H189.166L203.626 36.46H194.566L209.446 0.999997H223.366L205.606 43H191.686ZM218.692 43L237.052 0.999997H250.972L269.332 43H254.692L241.132 7.72H246.652L233.092 43H218.692ZM229.612 35.68L233.212 25.48H252.532L256.132 35.68H229.612ZM271.592 43V0.999997H285.752V32.02H304.712V43H271.592Z" fill="url(#paint0_linear_8003_836)"/>
<defs>
<linearGradient id="paint0_linear_8003_836" x1="-3" y1="21.5" x2="306" y2="21.5" gradientUnits="userSpaceOnUse">
<stop stop-color="#15FFD5"/>
<stop offset="1" stop-color="#00DCB4"/>
</linearGradient>
</defs>
</svg>
